<svg xmlns="http://www.w3.org/2000/svg" xmlns:xlink="http://www.w3.org/1999/xlink" version="1.1" x="0px" y="0px" viewBox="0 0 52 65" enable-background="new 0 0 52 52" xml:space="preserve"><g><g><path d="M12,13c1.6499634,0,3-1.3499756,3-3V5c0-1.6600342-1.3500366-3-3-3c-1.6600342,0-3,1.3399658-3,3v5    C9,11.6500244,10.3399658,13,12,13z"/></g><g><path d="M26,13c1.6499634,0,3-1.3499756,3-3V5c0-1.6600342-1.3500366-3-3-3c-1.6600342,0-3,1.3399658-3,3v5    C23,11.6500244,24.3399658,13,26,13z"/></g><g><path d="M47,6h-2v4c0,2.7600098-2.2399902,5-5,5s-5-2.2399902-5-5V6h-4v4c0,2.7600098-2.2399902,5-5,5s-5-2.2399902-5-5V6h-4v4    c0,2.7600098-2.2399902,5-5,5s-5-2.2399902-5-5V6H5C3.3399658,6,2,7.3399658,2,9v7h48V9C50,7.3399658,48.6499634,6,47,6z"/></g><g><path d="M40,13c1.6499634,0,3-1.3499756,3-3V5c0-1.6600342-1.3500366-3-3-3c-1.6600342,0-3,1.3399658-3,3v5    C37,11.6500244,38.3399658,13,40,13z"/></g><g><path d="M2,47c0,1.6500244,1.3399658,3,3,3h42c1.6499634,0,3-1.3499756,3-3V18H2V47z M38,22.5c0-0.8300171,0.6699829-1.5,1.5-1.5    h3c0.8200073,0,1.5,0.6699829,1.5,1.5v3c0,0.8200073-0.6799927,1.5-1.5,1.5h-3c-0.8300171,0-1.5-0.6799927-1.5-1.5V22.5z M38,31.5    c0-0.8300171,0.6699829-1.5,1.5-1.5h3c0.8200073,0,1.5,0.6699829,1.5,1.5v3c0,0.8200073-0.6799927,1.5-1.5,1.5h-3    c-0.8300171,0-1.5-0.6799927-1.5-1.5V31.5z M38,40.5c0-0.8300171,0.6699829-1.5,1.5-1.5h3c0.8200073,0,1.5,0.6699829,1.5,1.5v3    c0,0.8200073-0.6799927,1.5-1.5,1.5h-3c-0.8300171,0-1.5-0.6799927-1.5-1.5V40.5z M28,22.5c0-0.8300171,0.6699829-1.5,1.5-1.5h3    c0.8200073,0,1.5,0.6699829,1.5,1.5v3c0,0.8200073-0.6799927,1.5-1.5,1.5h-3c-0.8300171,0-1.5-0.6799927-1.5-1.5V22.5z M28,31.5    c0-0.8300171,0.6699829-1.5,1.5-1.5h3c0.8200073,0,1.5,0.6699829,1.5,1.5v3c0,0.8200073-0.6799927,1.5-1.5,1.5h-3    c-0.8300171,0-1.5-0.6799927-1.5-1.5V31.5z M28,40.5c0-0.8300171,0.6699829-1.5,1.5-1.5h3c0.8200073,0,1.5,0.6699829,1.5,1.5v3    c0,0.8200073-0.6799927,1.5-1.5,1.5h-3c-0.8300171,0-1.5-0.6799927-1.5-1.5V40.5z M18,22.5c0-0.8300171,0.6699829-1.5,1.5-1.5h3    c0.8200073,0,1.5,0.6699829,1.5,1.5v3c0,0.8200073-0.6799927,1.5-1.5,1.5h-3c-0.8300171,0-1.5-0.6799927-1.5-1.5V22.5z M18,31.5    c0-0.8300171,0.6699829-1.5,1.5-1.5h3c0.8200073,0,1.5,0.6699829,1.5,1.5v3c0,0.8200073-0.6799927,1.5-1.5,1.5h-3    c-0.8300171,0-1.5-0.6799927-1.5-1.5V31.5z M18,40.5c0-0.8300171,0.6699829-1.5,1.5-1.5h3c0.8200073,0,1.5,0.6699829,1.5,1.5v3    c0,0.8200073-0.6799927,1.5-1.5,1.5h-3c-0.8300171,0-1.5-0.6799927-1.5-1.5V40.5z M8,31.5C8,30.6699829,8.6699829,30,9.5,30h3    c0.8200073,0,1.5,0.6699829,1.5,1.5v3c0,0.8200073-0.6799927,1.5-1.5,1.5h-3C8.6699829,36,8,35.3200073,8,34.5V31.5z M8,40.5    C8,39.6699829,8.6699829,39,9.5,39h3c0.8200073,0,1.5,0.6699829,1.5,1.5v3c0,0.8200073-0.6799927,1.5-1.5,1.5h-3    C8.6699829,45,8,44.3200073,8,43.5V40.5z"/></g></g><text x="0" y="67" fill="#000000" font-size="5px" font-weight="bold" font-family="'Helvetica Neue', Helvetica, Arial-Unicode, Arial, Sans-serif">Created by DinosoftLabs</text><text x="0" y="72" fill="#000000" font-size="5px" font-weight="bold" font-family="'Helvetica Neue', Helvetica, Arial-Unicode, Arial, Sans-serif">from the Noun Project</text></svg>