<svg xmlns="http://www.w3.org/2000/svg" xmlns:xlink="http://www.w3.org/1999/xlink" version="1.1" x="0px" y="0px" viewBox="0 0 100 125" style="enable-background:new 0 0 100 100;" xml:space="preserve"><path d="M84,36.4c0.92,0.54,1.99,0.65,3.03,0.39c1.04-0.27,1.9-0.92,2.44-1.84c1.1-1.93,0.45-4.37-1.49-5.47  c-0.62-0.36-1.31-0.54-1.99-0.54c-1.37,0-2.74,0.71-3.45,1.99c-0.54,0.92-0.68,1.99-0.42,3.03C82.39,35.01,83.07,35.87,84,36.4z"/><path d="M54,24.3c0-2.2-1.78-4.01-4.01-4.01c-2.2,0-3.98,1.81-3.98,4.01c0,2.2,1.78,3.98,3.98,3.98C52.22,28.29,54,26.5,54,24.3z"/><path d="M15.02,29.06c-0.33-0.09-0.68-0.12-1.01-0.12c-0.71,0-1.4,0.18-2.02,0.54c-1.9,1.1-2.56,3.54-1.46,5.47  C11.6,36.76,14.1,37.5,16,36.4c0.59-0.39,1.1-0.86,1.46-1.46c0.71-1.25,0.71-2.79,0-4.01C16.93,30.01,16.06,29.33,15.02,29.06z"/><path d="M39.07,50.38c-0.03,0.06-0.03,0.12-0.06,0.15c-0.06,0.09-0.15,0.12-0.24,0.18c-0.03,0.03-0.06,0.09-0.12,0.12  c-0.18,0.09-0.36,0.15-0.56,0.15c-0.15,0-0.3-0.03-0.45-0.09c-0.06-0.03-0.09-0.06-0.12-0.09c-0.03,0-0.06,0-0.09-0.03L18.65,37.03  c-0.45,0.51-0.95,0.95-1.55,1.28c-0.56,0.36-1.16,0.54-1.78,0.68l6.39,30.47c18.73,4.04,37.76,4.04,56.55,0l6.39-30.47  c-0.62-0.15-1.22-0.33-1.78-0.65c-0.59-0.36-1.07-0.8-1.52-1.31L62.53,50.76c0,0.03-0.03,0.03-0.06,0.03  c-0.06,0.03-0.09,0.06-0.15,0.09c-0.12,0.06-0.27,0.09-0.45,0.09s-0.36-0.06-0.54-0.15c-0.06-0.03-0.09-0.09-0.15-0.12  c-0.06-0.06-0.15-0.09-0.21-0.18c-0.03-0.03-0.03-0.09-0.06-0.15c-0.03-0.03-0.06-0.03-0.06-0.06l-8.89-20.13  c-0.62,0.21-1.28,0.33-1.99,0.33c-0.68,0-1.34-0.12-1.96-0.33l-8.89,20.13C39.1,50.35,39.07,50.35,39.07,50.38z"/><path d="M77.75,71.81c-9.22,1.93-18.52,2.94-27.8,2.94s-18.55-1.01-27.74-2.94l1.07,5.11c17.69,3.72,35.65,3.72,53.39,0L77.75,71.81  z"/><text x="0" y="115" fill="#000000" font-size="5px" font-weight="bold" font-family="'Helvetica Neue', Helvetica, Arial-Unicode, Arial, Sans-serif">Created by ainul muttaqin</text><text x="0" y="120" fill="#000000" font-size="5px" font-weight="bold" font-family="'Helvetica Neue', Helvetica, Arial-Unicode, Arial, Sans-serif">from the Noun Project</text></svg>