<svg xmlns="http://www.w3.org/2000/svg" xmlns:xlink="http://www.w3.org/1999/xlink" viewBox="0 0 100 125" version="1.1" x="0px" y="0px"><title>68</title><desc>Created with Sketch.</desc><g stroke="none" stroke-width="1" fill="none" fill-rule="evenodd"><g fill="#000000"><g transform="translate(0.000000, 7.000000)"><path d="M99.8766393,39.4264754 C99.627459,37.3514754 98.585041,35.497582 96.9413934,34.2065984 L96.9415984,34.2065984 L85.2239754,25.0022951 L85.2239754,8.83016393 C85.2239754,7.69840164 84.3065574,6.78098361 83.1747951,6.78098361 L74.7502049,6.78098361 C73.6184426,6.78098361 72.7010246,7.69840164 72.7010246,8.83016393 L72.7010246,15.165 L56.1057377,2.12934426 C52.4913934,-0.709795082 47.442418,-0.709590164 43.827459,2.12934426 L2.99221311,34.2065984 C1.34877049,35.497582 0.306352459,37.3514754 0.0569672131,39.4264754 C-0.192213115,41.5014754 0.381557377,43.5494262 1.67254098,45.1928689 C2.96331967,46.8365164 4.81721311,47.8789344 6.89221311,48.1281148 C7.20963115,48.1662295 7.52643443,48.1852869 7.84118852,48.1852869 C9.58422131,48.185082 11.2668033,47.6061885 12.6590164,46.5127459 L46.3592213,20.0402049 C48.4831967,18.3717623 51.4502049,18.3717623 53.5741803,20.0402049 L87.2747951,46.5127459 C88.9180328,47.8035246 90.9647541,48.3772951 93.0413934,48.1281148 C95.1163934,47.8789344 96.970082,46.8365164 98.2610656,45.1930738 C99.5520492,43.5494262 100.12582,41.5014754 99.8766393,39.4264754"/><path d="M84.4347541,49.0823361 L53.7798361,25.177418 C51.5347541,23.4268033 48.3988934,23.4263934 46.1536066,25.177418 L15.4986885,49.0823361 C15.0007377,49.4706557 14.7095492,50.0667623 14.7095492,50.6983197 L14.7095492,77.9786475 C14.7095492,82.8725 18.6911066,86.8540574 23.5851639,86.8540574 L39.6247131,86.8540574 C40.7564754,86.8540574 41.6738934,85.9366393 41.6738934,84.804877 L41.6738934,65.7022131 C41.6738934,61.1296721 45.3939754,57.4093852 49.9667213,57.4093852 C54.5394672,57.4093852 58.2597541,61.1296721 58.2597541,65.7022131 L58.2597541,84.804877 C58.2597541,85.9366393 59.1771721,86.8540574 60.3089344,86.8540574 L76.3484836,86.8540574 C81.2423361,86.8540574 85.2238934,82.8725 85.2238934,77.9786475 L85.2238934,50.6983197 C85.2238934,50.0667623 84.9327049,49.4706557 84.4347541,49.0823361"/></g></g></g><text x="0" y="115" fill="#000000" font-size="5px" font-weight="bold" font-family="'Helvetica Neue', Helvetica, Arial-Unicode, Arial, Sans-serif">Created by AomAm</text><text x="0" y="120" fill="#000000" font-size="5px" font-weight="bold" font-family="'Helvetica Neue', Helvetica, Arial-Unicode, Arial, Sans-serif">from the Noun Project</text></svg>