<svg xmlns="http://www.w3.org/2000/svg" xmlns:xlink="http://www.w3.org/1999/xlink" version="1.1" x="0px" y="0px" viewBox="0 0 24 30" enable-background="new 0 0 24 24" xml:space="preserve"><path d="M2,20.179h12.202c0.276,0,0.5-0.224,0.5-0.5c0-5.783-2.963-6.853-6.035-6.957c2.201-0.282,3.913-2.146,3.913-4.422  c0-2.47-2.01-4.479-4.48-4.479c-2.47,0-4.479,2.009-4.479,4.479c0,2.275,1.711,4.14,3.911,4.422C4.461,12.826,1.5,13.896,1.5,19.679  C1.5,19.955,1.724,20.179,2,20.179z"/><path d="M22,10.845h-3.448V7.398c0-0.276-0.224-0.5-0.5-0.5s-0.5,0.224-0.5,0.5v3.446h-3.447c-0.276,0-0.5,0.224-0.5,0.5  s0.224,0.5,0.5,0.5h3.447v3.448c0,0.276,0.224,0.5,0.5,0.5s0.5-0.224,0.5-0.5v-3.448H22c0.276,0,0.5-0.224,0.5-0.5  S22.276,10.845,22,10.845z"/><text x="0" y="39" fill="#000000" font-size="5px" font-weight="bold" font-family="'Helvetica Neue', Helvetica, Arial-Unicode, Arial, Sans-serif">Created by hayatstudio10</text><text x="0" y="44" fill="#000000" font-size="5px" font-weight="bold" font-family="'Helvetica Neue', Helvetica, Arial-Unicode, Arial, Sans-serif">from the Noun Project</text></svg>