<svg xmlns="http://www.w3.org/2000/svg" xmlns:xlink="http://www.w3.org/1999/xlink" xml:space="preserve" version="1.1" style="shape-rendering:geometricPrecision;text-rendering:geometricPrecision;image-rendering:optimizeQuality;" viewBox="0 0 333.33 416.66249999999997" x="0px" y="0px" fill-rule="evenodd" clip-rule="evenodd"><defs><style type="text/css">
   
    .fil0 {fill:black}
   
  </style></defs><g><path class="fil0" d="M166.63 322.34c-158.38,0 -151.22,-169.51 -53.93,-247.03l53.93 0 53.93 0c97.2,77.45 104.77,247.03 -53.93,247.03zm0 -291.18l42.02 -18.38c7.98,-3.49 16.82,-1.82 22.98,4.33 6.16,6.16 7.83,15 4.33,22.98l-9.05 20.69 -1 -0.8 -118.56 0 -1 0.8 -9.05 -20.69c-3.49,-7.98 -1.83,-16.82 4.33,-22.98 6.16,-6.16 15,-7.83 22.98,-4.33l42.02 18.38zm-7.67 117.67c0,-4.23 3.43,-7.66 7.66,-7.66 4.23,0 7.65,3.43 7.65,7.66l0 2.46c5.66,1.41 10.71,4.33 14.7,8.33 5.72,5.72 9.26,13.63 9.26,22.36 0,4.23 -3.43,7.66 -7.65,7.66 -4.23,0 -7.66,-3.43 -7.66,-7.66 0,-4.5 -1.83,-8.58 -4.78,-11.53 -1.14,-1.14 -2.44,-2.11 -3.88,-2.87l0 31.65c5.66,1.41 10.71,4.33 14.7,8.33 5.72,5.72 9.26,13.63 9.26,22.36 0,8.73 -3.54,16.63 -9.26,22.35 -3.99,3.99 -9.05,6.92 -14.7,8.33l0 2.45c0,4.23 -3.43,7.66 -7.65,7.66 -4.23,0 -7.66,-3.43 -7.66,-7.66l0 -2.45c-5.66,-1.41 -10.71,-4.34 -14.7,-8.33 -5.72,-5.72 -9.26,-13.63 -9.26,-22.35 0,-4.23 3.43,-7.66 7.66,-7.66 4.23,0 7.65,3.43 7.65,7.66 0,4.5 1.83,8.58 4.78,11.53 1.14,1.14 2.44,2.11 3.88,2.87l0 -31.65c-5.66,-1.41 -10.71,-4.33 -14.7,-8.33 -5.72,-5.72 -9.26,-13.63 -9.26,-22.36 0,-8.73 3.54,-16.64 9.26,-22.36 4,-3.99 9.05,-6.92 14.7,-8.33l0 -2.46zm15.31 66.67l0 28.81c1.43,-0.76 2.74,-1.73 3.88,-2.87 2.95,-2.95 4.78,-7.03 4.78,-11.53 0,-4.51 -1.83,-8.58 -4.78,-11.54 -1.14,-1.14 -2.44,-2.11 -3.88,-2.87zm-15.31 -19.12l0 -28.81c-1.43,0.76 -2.74,1.74 -3.88,2.87 -2.95,2.95 -4.78,7.03 -4.78,11.53 0,4.5 1.83,8.58 4.78,11.53 1.14,1.14 2.44,2.11 3.88,2.87z"/></g><text x="0" y="348.33" fill="#000000" font-size="5px" font-weight="bold" font-family="'Helvetica Neue', Helvetica, Arial-Unicode, Arial, Sans-serif">Created by SUBAIDA</text><text x="0" y="353.33" fill="#000000" font-size="5px" font-weight="bold" font-family="'Helvetica Neue', Helvetica, Arial-Unicode, Arial, Sans-serif">from the Noun Project</text></svg>