<svg xmlns="http://www.w3.org/2000/svg" data-name="Layer 1" viewBox="0 0 24 30" x="0px" y="0px"><path d="M20,11.5A1.5,1.5,0,0,0,18.5,13a6.5,6.5,0,1,1-7.138-6.468,1.5,1.5,0,0,0,2.059,1.793l2.568-1.184a1.5,1.5,0,0,0,.734-1.991L15.539,2.582a1.5,1.5,0,0,0-2.826.952C12.477,3.516,12.24,3.5,12,3.5A9.5,9.5,0,1,0,21.5,13,1.5,1.5,0,0,0,20,11.5Z"/><text x="0" y="39" fill="#000000" font-size="5px" font-weight="bold" font-family="'Helvetica Neue', Helvetica, Arial-Unicode, Arial, Sans-serif">Created by Nira Inds</text><text x="0" y="44" fill="#000000" font-size="5px" font-weight="bold" font-family="'Helvetica Neue', Helvetica, Arial-Unicode, Arial, Sans-serif">from the Noun Project</text></svg>