<svg xmlns="http://www.w3.org/2000/svg" xmlns:xlink="http://www.w3.org/1999/xlink" xml:space="preserve" version="1.1" style="shape-rendering:geometricPrecision;text-rendering:geometricPrecision;image-rendering:optimizeQuality;" viewBox="0 0 335 322.5" x="0px" y="0px" fill-rule="evenodd" clip-rule="evenodd"><defs><style type="text/css">
   
    .fil0 {fill:black}
   
  </style></defs><g><path class="fil0" d="M158 51l0 191c0,0 -42,-44 -90,-40 -29,2 -29,-1 -29,-40l0 -149c2,-17 22,-13 34,-12 13,1 57,8 85,50zm-138 -17l0 122c0,45 2,65 55,63 65,-3 79,38 79,39 0,0 -40,-21 -89,-21 -16,1 -46,12 -56,2 -12,-11 -9,-41 -9,-64l0 -119c0,-11 5,-26 20,-22zm295 0l0 122c0,45 -2,65 -55,63 -65,-3 -79,38 -79,39 0,0 40,-21 89,-21 16,1 46,12 56,2 11,-11 9,-41 9,-64l0 -119c0,-11 -5,-26 -20,-22zm-138 17l0 191c0,0 42,-44 90,-40 29,2 29,-1 29,-40l0 -149c-2,-17 -22,-13 -34,-12 -13,1 -57,8 -85,50z"/></g><text x="0" y="273" fill="#000000" font-size="5px" font-weight="bold" font-family="'Helvetica Neue', Helvetica, Arial-Unicode, Arial, Sans-serif">Created by emkamal kamaluddin</text><text x="0" y="278" fill="#000000" font-size="5px" font-weight="bold" font-family="'Helvetica Neue', Helvetica, Arial-Unicode, Arial, Sans-serif">from the Noun Project</text></svg>