<svg xmlns="http://www.w3.org/2000/svg" viewBox="0 0 64 80" fill="none" x="0px" y="0px"><path fill-rule="evenodd" clip-rule="evenodd" d="M40 16C37.3876 16 35.1651 17.6696 34.3414 20H46C54.8366 20 62 27.1634 62 36C62 44.8366 54.8366 52 46 52C40.0749 52 34.9054 48.7792 32.141 44H31.859C29.0946 48.7792 23.9251 52 18 52C9.16344 52 2 44.8366 2 36C2 29.6842 5.6596 24.2269 10.9651 21.626C12.7396 20.5919 14.8037 20 17 20H30.2C31.1266 15.4355 35.1621 12 40 12H49C51.2091 12 53 10.2091 53 8C53 6.89543 53.8954 6 55 6C56.1046 6 57 6.89543 57 8C57 12.4183 53.4183 16 49 16H40ZM46 34C44.8954 34 44 33.1046 44 32C44 30.8954 44.8954 30 46 30C47.1046 30 48 30.8954 48 32C48 33.1046 47.1046 34 46 34ZM46 42C44.8954 42 44 41.1046 44 40C44 38.8954 44.8954 38 46 38C47.1046 38 48 38.8954 48 40C48 41.1046 47.1046 42 46 42ZM44 36C44 37.1046 43.1046 38 42 38C40.8954 38 40 37.1046 40 36C40 34.8954 40.8954 34 42 34C43.1046 34 44 34.8954 44 36ZM52 36C52 37.1046 51.1046 38 50 38C48.8954 38 48 37.1046 48 36C48 34.8954 48.8954 34 50 34C51.1046 34 52 34.8954 52 36ZM14 34C12.8954 34 12 34.8954 12 36C12 37.1046 12.8954 38 14 38H16V40C16 41.1046 16.8954 42 18 42C19.1046 42 20 41.1046 20 40V38H22C23.1046 38 24 37.1046 24 36C24 34.8954 23.1046 34 22 34H20V32C20 30.8954 19.1046 30 18 30C16.8954 30 16 30.8954 16 32V34H14Z" fill="black"/><text x="0" y="79" fill="#000000" font-size="5px" font-weight="bold" font-family="'Helvetica Neue', Helvetica, Arial-Unicode, Arial, Sans-serif">Created by HDM</text><text x="0" y="84" fill="#000000" font-size="5px" font-weight="bold" font-family="'Helvetica Neue', Helvetica, Arial-Unicode, Arial, Sans-serif">from the Noun Project</text></svg>