<svg xmlns:inkscape="http://www.inkscape.org/namespaces/inkscape" xmlns:sodipodi="http://sodipodi.sourceforge.net/DTD/sodipodi-0.dtd" xmlns="http://www.w3.org/2000/svg" xmlns:svg="http://www.w3.org/2000/svg" xmlns:rdf="http://www.w3.org/1999/02/22-rdf-syntax-ns#" xmlns:cc="http://creativecommons.org/ns#" xmlns:dc="http://purl.org/dc/elements/1.1/" viewBox="0 0 16.933333 21.1666675" version="1.1" x="0px" y="0px"><g><path style="color:#000000;" d="m 13.292352,0.79375215 a 0.26454018,0.26466167 1.6243362e-4 0 0 -0.24339,0.163292 l -0.49866,1.20401905 -1.2991,0.106451 a 0.26454018,0.26466167 1.6243362e-4 0 0 -0.15089,0.465589 l 0.99163,0.845914 -0.30023,1.26913 a 0.26454018,0.26466167 1.6243362e-4 0 0 0.39532,0.286278 l 1.11048,-0.681072 1.11257,0.677972 a 0.26454018,0.26466167 1.6243362e-4 0 0 0.39582,-0.287829 l -0.30488,-1.26758 0.98854,-0.849015 a 0.26454018,0.26466167 1.6243362e-4 0 0 -0.15193,-0.465072 l -1.29806,-0.102833 -0.50228,-1.20298605 a 0.26454018,0.26466167 1.6243362e-4 0 0 -0.24494,-0.162258 z M 8.4633519,3.3397632 a 0.26454018,0.26466167 1.6243362e-4 0 0 -0.2439,0.163292 l -0.49867,1.20402 -1.29858,0.10645 a 0.26454018,0.26466167 1.6243362e-4 0 0 -0.15089,0.465589 l 0.99164,0.845915 -0.30075,1.26913 a 0.26454018,0.26466167 1.6243362e-4 0 0 0.39531,0.286277 l 1.11101,-0.681072 1.11256,0.677972 a 0.26454018,0.26466167 1.6243362e-4 0 0 0.39583,-0.287828 l -0.3054,-1.26758 0.9890501,-0.849015 a 0.26454018,0.26466167 1.6243362e-4 0 0 -0.15192,-0.465072 l -1.2985901,-0.102833 -0.50176,-1.202986 a 0.26454018,0.26466167 1.6243362e-4 0 0 -0.24494,-0.162259 z m 4.8315801,2.054069 a 0.26460098,0.26460098 0 0 0 -0.21703,0.113167 l -2.05045,2.917553 a 0.26460098,0.26460098 0 0 0 0.21651,0.418048 h 0.8516 v 7.0313728 a 0.26460098,0.26460098 0 0 0 0.26355,0.265608 h 1.87113 a 0.26460098,0.26460098 0 0 0 0.26354,-0.265608 V 8.8426002 h 0.8516 a 0.26460098,0.26460098 0 0 0 0.21704,-0.418048 l -2.05097,-2.917553 a 0.26460098,0.26460098 0 0 0 -0.21652,-0.113167 z m -9.6611001,0.591675 a 0.26454018,0.26466167 1.6243362e-4 0 0 -0.24338,0.163292 l -0.49918,1.20402 -1.29858,0.10645 a 0.26454018,0.26466167 1.6243362e-4 0 0 -0.15089,0.465589 l 0.99163,0.845914 -0.30075,1.2691298 a 0.26454018,0.26466167 1.6243362e-4 0 0 0.39532,0.286277 l 1.111,-0.6810708 1.11256,0.6779718 a 0.26454018,0.26466167 1.6243362e-4 0 0 0.39583,-0.287829 l -0.3054,-1.2675798 0.98906,-0.849014 a 0.26454018,0.26466167 1.6243362e-4 0 0 -0.15193,-0.465072 l -1.29858,-0.102833 -0.50177,-1.202987 a 0.26454018,0.26466167 1.6243362e-4 0 0 -0.24494,-0.162258 z m 4.83107,1.88871 a 0.26460098,0.26460098 0 0 0 -0.21704,0.1111 l -2.04838,2.9196198 a 0.26460098,0.26460098 0 0 0 0.21497,0.416498 h 0.85108 v 4.552538 a 0.26460098,0.26460098 0 0 0 0.26561,0.265608 h 1.86908 a 0.26460098,0.26460098 0 0 0 0.2656,-0.265608 v -4.552538 h 0.8500501 a 0.26460098,0.26460098 0 0 0 0.21652,-0.416498 L 8.6819419,7.9853172 a 0.26460098,0.26460098 0 0 0 -0.21704,-0.1111 z m -4.82796,2.4566128 a 0.26460098,0.26460098 0 0 0 -0.21652,0.111618 l -2.05097,2.919619 a 0.26460098,0.26460098 0 0 0 0.21703,0.415981 h 0.84953 v 2.095925 a 0.26460098,0.26460098 0 0 0 0.26561,0.265608 h 1.86908 a 0.26460098,0.26460098 0 0 0 0.26561,-0.265608 v -2.095925 h 0.85159 a 0.26460098,0.26460098 0 0 0 0.21652,-0.415981 l -2.05252,-2.919619 a 0.26460098,0.26460098 0 0 0 -0.21496,-0.111618 z" fill="#000000" stroke-width="0.999996" stroke-linecap="round" stroke-linejoin="round"/></g><text x="0" y="31.933334" fill="#000000" font-size="5px" font-weight="bold" font-family="'Helvetica Neue', Helvetica, Arial-Unicode, Arial, Sans-serif">Created by Larea</text><text x="0" y="36.933334" fill="#000000" font-size="5px" font-weight="bold" font-family="'Helvetica Neue', Helvetica, Arial-Unicode, Arial, Sans-serif">from the Noun Project</text></svg>